<svg width="1490" height="1490" viewBox="0 0 1490 1490" fill="none" xmlns="http://www.w3.org/2000/svg">
<circle cx="828.5" cy="394.5" r="57.5" fill="url(#paint0_linear_2099_1957)"/>
<circle cx="828.5" cy="544.5" r="57.5" fill="url(#paint1_linear_2099_1957)"/>
<circle cx="828.5" cy="974.5" r="57.5" fill="url(#paint2_linear_2099_1957)"/>
<circle cx="828.5" cy="824.5" r="57.5" fill="url(#paint3_linear_2099_1957)"/>
<path d="M833.568 712.33C833.568 714.082 832.941 715.585 831.686 716.84C830.431 718.095 828.928 718.722 827.176 718.722C825.424 718.722 823.921 718.095 822.666 716.84C821.411 715.585 820.784 714.082 820.784 712.33C820.784 710.578 821.411 709.075 822.666 707.82C823.921 706.566 825.424 705.938 827.176 705.938C828.336 705.938 829.402 706.234 830.372 706.826C831.343 707.394 832.124 708.164 832.716 709.134C833.284 710.081 833.568 711.146 833.568 712.33ZM833.568 684.491C833.568 686.243 832.941 687.746 831.686 689.001C830.431 690.256 828.928 690.883 827.176 690.883C825.424 690.883 823.921 690.256 822.666 689.001C821.411 687.746 820.784 686.243 820.784 684.491C820.784 682.739 821.411 681.236 822.666 679.981C823.921 678.726 825.424 678.099 827.176 678.099C828.336 678.099 829.402 678.395 830.372 678.987C831.343 679.555 832.124 680.324 832.716 681.295C833.284 682.242 833.568 683.307 833.568 684.491ZM833.568 656.652C833.568 658.404 832.941 659.907 831.686 661.162C830.431 662.417 828.928 663.044 827.176 663.044C825.424 663.044 823.921 662.417 822.666 661.162C821.411 659.907 820.784 658.404 820.784 656.652C820.784 654.9 821.411 653.397 822.666 652.142C823.921 650.887 825.424 650.26 827.176 650.26C828.336 650.26 829.402 650.556 830.372 651.148C831.343 651.716 832.124 652.485 832.716 653.456C833.284 654.403 833.568 655.468 833.568 656.652Z" fill="white"/>
<circle cx="1101.5" cy="544.5" r="57.5" fill="url(#paint4_linear_2099_1957)"/>
<circle cx="1101.5" cy="824.5" r="57.5" fill="url(#paint5_linear_2099_1957)"/>
<path d="M1106.57 712.33C1106.57 714.082 1105.94 715.585 1104.69 716.84C1103.43 718.095 1101.93 718.722 1100.18 718.722C1098.42 718.722 1096.92 718.095 1095.67 716.84C1094.41 715.585 1093.78 714.082 1093.78 712.33C1093.78 710.578 1094.41 709.075 1095.67 707.82C1096.92 706.566 1098.42 705.938 1100.18 705.938C1101.34 705.938 1102.4 706.234 1103.37 706.826C1104.34 707.394 1105.12 708.164 1105.72 709.134C1106.28 710.081 1106.57 711.146 1106.57 712.33ZM1106.57 684.491C1106.57 686.243 1105.94 687.746 1104.69 689.001C1103.43 690.256 1101.93 690.883 1100.18 690.883C1098.42 690.883 1096.92 690.256 1095.67 689.001C1094.41 687.746 1093.78 686.243 1093.78 684.491C1093.78 682.739 1094.41 681.236 1095.67 679.981C1096.92 678.726 1098.42 678.099 1100.18 678.099C1101.34 678.099 1102.4 678.395 1103.37 678.987C1104.34 679.555 1105.12 680.324 1105.72 681.295C1106.28 682.242 1106.57 683.307 1106.57 684.491ZM1106.57 656.652C1106.57 658.404 1105.94 659.907 1104.69 661.162C1103.43 662.417 1101.93 663.044 1100.18 663.044C1098.42 663.044 1096.92 662.417 1095.67 661.162C1094.41 659.907 1093.78 658.404 1093.78 656.652C1093.78 654.9 1094.41 653.397 1095.67 652.142C1096.92 650.887 1098.42 650.26 1100.18 650.26C1101.34 650.26 1102.4 650.556 1103.37 651.148C1104.34 651.716 1105.12 652.485 1105.72 653.456C1106.28 654.403 1106.57 655.468 1106.57 656.652Z" fill="white"/>
<circle cx="555.5" cy="823.5" r="57.5" fill="url(#paint6_linear_2099_1957)"/>
<circle cx="551.5" cy="1111.5" r="57.5" fill="url(#paint7_linear_2099_1957)"/>
<circle cx="551.5" cy="967.5" r="57.5" fill="url(#paint8_linear_2099_1957)"/>
<circle cx="551.5" cy="543.5" r="57.5" fill="url(#paint9_linear_2099_1957)"/>
<circle cx="551.5" cy="243.5" r="57.5" fill="url(#paint10_linear_2099_1957)"/>
<circle cx="551.5" cy="393.5" r="57.5" fill="url(#paint11_linear_2099_1957)"/>
<path d="M556.568 711.33C556.568 713.082 555.941 714.585 554.686 715.84C553.431 717.095 551.928 717.722 550.176 717.722C548.424 717.722 546.921 717.095 545.666 715.84C544.411 714.585 543.784 713.082 543.784 711.33C543.784 709.578 544.411 708.075 545.666 706.82C546.921 705.566 548.424 704.938 550.176 704.938C551.336 704.938 552.402 705.234 553.372 705.826C554.343 706.394 555.124 707.164 555.716 708.134C556.284 709.081 556.568 710.146 556.568 711.33ZM556.568 683.491C556.568 685.243 555.941 686.746 554.686 688.001C553.431 689.256 551.928 689.883 550.176 689.883C548.424 689.883 546.921 689.256 545.666 688.001C544.411 686.746 543.784 685.243 543.784 683.491C543.784 681.739 544.411 680.236 545.666 678.981C546.921 677.726 548.424 677.099 550.176 677.099C551.336 677.099 552.402 677.395 553.372 677.987C554.343 678.555 555.124 679.324 555.716 680.295C556.284 681.242 556.568 682.307 556.568 683.491ZM556.568 655.652C556.568 657.404 555.941 658.907 554.686 660.162C553.431 661.417 551.928 662.044 550.176 662.044C548.424 662.044 546.921 661.417 545.666 660.162C544.411 658.907 543.784 657.404 543.784 655.652C543.784 653.9 544.411 652.397 545.666 651.142C546.921 649.887 548.424 649.26 550.176 649.26C551.336 649.26 552.402 649.556 553.372 650.148C554.343 650.716 555.124 651.485 555.716 652.456C556.284 653.403 556.568 654.468 556.568 655.652Z" fill="white"/>
<rect x="114" y="595" width="222" height="222" rx="8" fill="url(#paint12_linear_2099_1957)"/>
<path d="M138.855 649V627.182H143.102V649H138.855ZM141 623.815C140.261 623.815 139.627 623.569 139.097 623.077C138.576 622.575 138.315 621.978 138.315 621.287C138.315 620.586 138.576 619.99 139.097 619.497C139.627 618.995 140.261 618.744 141 618.744C141.739 618.744 142.368 618.995 142.889 619.497C143.42 619.99 143.685 620.586 143.685 621.287C143.685 621.978 143.42 622.575 142.889 623.077C142.368 623.569 141.739 623.815 141 623.815ZM149.116 649V627.182H153.193V630.733H153.463C153.917 629.53 154.661 628.593 155.693 627.92C156.725 627.239 157.961 626.898 159.4 626.898C160.858 626.898 162.08 627.239 163.065 627.92C164.059 628.602 164.793 629.54 165.267 630.733H165.494C166.015 629.568 166.843 628.64 167.98 627.949C169.116 627.248 170.47 626.898 172.042 626.898C174.021 626.898 175.636 627.518 176.886 628.759C178.145 629.999 178.775 631.869 178.775 634.369V649H174.528V634.767C174.528 633.29 174.126 632.22 173.321 631.557C172.516 630.894 171.554 630.562 170.437 630.562C169.054 630.562 167.98 630.989 167.213 631.841C166.446 632.684 166.062 633.768 166.062 635.094V649H161.829V634.497C161.829 633.313 161.46 632.362 160.721 631.642C159.983 630.922 159.021 630.562 157.838 630.562C157.033 630.562 156.289 630.776 155.608 631.202C154.935 631.618 154.391 632.201 153.974 632.949C153.567 633.697 153.363 634.563 153.363 635.548V649H149.116ZM191.117 649.483C189.734 649.483 188.484 649.227 187.367 648.716C186.25 648.195 185.364 647.442 184.711 646.457C184.067 645.473 183.745 644.265 183.745 642.835C183.745 641.604 183.982 640.591 184.455 639.795C184.929 639 185.568 638.37 186.373 637.906C187.178 637.442 188.077 637.092 189.072 636.855C190.066 636.618 191.079 636.438 192.111 636.315C193.418 636.164 194.479 636.041 195.293 635.946C196.108 635.842 196.699 635.676 197.069 635.449C197.438 635.222 197.623 634.852 197.623 634.341V634.241C197.623 633.001 197.272 632.04 196.572 631.358C195.88 630.676 194.848 630.335 193.475 630.335C192.045 630.335 190.918 630.652 190.094 631.287C189.28 631.912 188.716 632.608 188.404 633.375L184.412 632.466C184.886 631.14 185.577 630.07 186.486 629.256C187.405 628.432 188.461 627.835 189.654 627.466C190.847 627.087 192.102 626.898 193.418 626.898C194.289 626.898 195.213 627.002 196.188 627.21C197.173 627.409 198.091 627.778 198.944 628.318C199.805 628.858 200.511 629.63 201.06 630.634C201.609 631.628 201.884 632.92 201.884 634.511V649H197.736V646.017H197.566C197.291 646.566 196.879 647.106 196.33 647.636C195.781 648.167 195.075 648.607 194.214 648.957C193.352 649.308 192.32 649.483 191.117 649.483ZM192.04 646.074C193.215 646.074 194.218 645.842 195.052 645.378C195.895 644.914 196.534 644.308 196.969 643.56C197.414 642.802 197.637 641.992 197.637 641.131V638.318C197.485 638.47 197.192 638.612 196.756 638.744C196.33 638.867 195.842 638.976 195.293 639.071C194.744 639.156 194.209 639.237 193.688 639.312C193.167 639.379 192.732 639.436 192.381 639.483C191.557 639.587 190.805 639.762 190.123 640.009C189.45 640.255 188.911 640.61 188.503 641.074C188.106 641.528 187.907 642.134 187.907 642.892C187.907 643.943 188.295 644.739 189.072 645.278C189.848 645.809 190.838 646.074 192.04 646.074ZM216.989 657.636C215.256 657.636 213.764 657.409 212.514 656.955C211.274 656.5 210.261 655.899 209.475 655.151C208.689 654.402 208.101 653.583 207.713 652.693L211.364 651.188C211.619 651.604 211.96 652.045 212.387 652.509C212.822 652.982 213.409 653.384 214.148 653.716C214.896 654.047 215.857 654.213 217.031 654.213C218.641 654.213 219.972 653.82 221.023 653.034C222.074 652.258 222.6 651.017 222.6 649.312V645.023H222.33C222.074 645.487 221.705 646.003 221.222 646.571C220.748 647.139 220.095 647.632 219.262 648.048C218.428 648.465 217.344 648.673 216.009 648.673C214.285 648.673 212.732 648.271 211.35 647.466C209.976 646.652 208.887 645.454 208.083 643.872C207.287 642.281 206.889 640.326 206.889 638.006C206.889 635.686 207.282 633.697 208.068 632.04C208.864 630.383 209.953 629.114 211.335 628.233C212.718 627.343 214.285 626.898 216.037 626.898C217.391 626.898 218.485 627.125 219.318 627.58C220.152 628.025 220.8 628.545 221.264 629.142C221.738 629.739 222.102 630.264 222.358 630.719H222.671V627.182H226.833V649.483C226.833 651.358 226.397 652.897 225.526 654.099C224.654 655.302 223.476 656.192 221.989 656.77C220.512 657.348 218.845 657.636 216.989 657.636ZM216.946 645.151C218.168 645.151 219.2 644.866 220.043 644.298C220.895 643.721 221.539 642.897 221.975 641.827C222.42 640.747 222.642 639.455 222.642 637.949C222.642 636.481 222.424 635.188 221.989 634.071C221.553 632.954 220.914 632.082 220.071 631.457C219.228 630.823 218.187 630.506 216.946 630.506C215.668 630.506 214.602 630.837 213.75 631.5C212.898 632.153 212.254 633.044 211.818 634.17C211.392 635.297 211.179 636.557 211.179 637.949C211.179 639.379 211.397 640.634 211.833 641.713C212.268 642.793 212.912 643.635 213.764 644.241C214.626 644.848 215.687 645.151 216.946 645.151ZM242.232 649.44C240.082 649.44 238.231 648.981 236.678 648.062C235.134 647.134 233.941 645.832 233.098 644.156C232.265 642.471 231.848 640.496 231.848 638.233C231.848 635.998 232.265 634.028 233.098 632.324C233.941 630.619 235.115 629.289 236.621 628.332C238.136 627.376 239.907 626.898 241.934 626.898C243.165 626.898 244.358 627.101 245.513 627.509C246.669 627.916 247.705 628.555 248.624 629.426C249.543 630.297 250.267 631.429 250.797 632.821C251.328 634.204 251.593 635.884 251.593 637.864V639.369H234.249V636.188H247.431C247.431 635.07 247.204 634.08 246.749 633.219C246.294 632.348 245.655 631.661 244.831 631.159C244.017 630.657 243.061 630.406 241.962 630.406C240.769 630.406 239.727 630.7 238.837 631.287C237.956 631.865 237.275 632.622 236.792 633.56C236.318 634.488 236.081 635.496 236.081 636.585V639.071C236.081 640.529 236.337 641.77 236.848 642.793C237.369 643.815 238.094 644.597 239.022 645.136C239.95 645.667 241.034 645.932 242.275 645.932C243.079 645.932 243.813 645.818 244.476 645.591C245.139 645.354 245.712 645.004 246.195 644.54C246.678 644.076 247.047 643.503 247.303 642.821L251.323 643.545C251.001 644.729 250.423 645.766 249.59 646.656C248.766 647.537 247.729 648.223 246.479 648.716C245.239 649.199 243.823 649.44 242.232 649.44Z" fill="white"/>
<path d="M1102.02 557.483C1099.77 557.473 1097.85 556.882 1096.26 555.707C1094.67 554.533 1093.46 552.824 1092.61 550.58C1091.77 548.335 1091.35 545.632 1091.35 542.469C1091.35 539.315 1091.77 536.621 1092.61 534.386C1093.46 532.152 1094.69 530.447 1096.28 529.273C1097.88 528.098 1099.79 527.511 1102.02 527.511C1104.24 527.511 1106.15 528.103 1107.74 529.287C1109.33 530.461 1110.55 532.166 1111.39 534.401C1112.24 536.626 1112.67 539.315 1112.67 542.469C1112.67 545.641 1112.25 548.349 1111.41 550.594C1110.56 552.829 1109.35 554.538 1107.75 555.722C1106.16 556.896 1104.25 557.483 1102.02 557.483ZM1102.02 553.69C1103.99 553.69 1105.52 552.729 1106.63 550.807C1107.75 548.884 1108.31 546.105 1108.31 542.469C1108.31 540.054 1108.05 538.013 1107.54 536.347C1107.04 534.67 1106.32 533.402 1105.37 532.54C1104.43 531.669 1103.31 531.233 1102.02 531.233C1100.06 531.233 1098.52 532.199 1097.4 534.131C1096.28 536.062 1095.72 538.842 1095.71 542.469C1095.71 544.893 1095.96 546.943 1096.46 548.619C1096.97 550.286 1097.7 551.55 1098.64 552.412C1099.57 553.264 1100.7 553.69 1102.02 553.69Z" fill="white"/>
<path d="M1093.32 812.909V842H1088.92V817.312H1088.75L1081.79 821.858V817.653L1089.05 812.909H1093.32ZM1111.62 842.483C1109.37 842.473 1107.46 841.882 1105.87 840.707C1104.28 839.533 1103.06 837.824 1102.22 835.58C1101.37 833.335 1100.95 830.632 1100.95 827.469C1100.95 824.315 1101.37 821.621 1102.22 819.386C1103.07 817.152 1104.29 815.447 1105.88 814.273C1107.48 813.098 1109.39 812.511 1111.62 812.511C1113.84 812.511 1115.75 813.103 1117.34 814.287C1118.93 815.461 1120.15 817.166 1120.99 819.401C1121.85 821.626 1122.27 824.315 1122.27 827.469C1122.27 830.641 1121.85 833.349 1121.01 835.594C1120.17 837.829 1118.95 839.538 1117.36 840.722C1115.77 841.896 1113.85 842.483 1111.62 842.483ZM1111.62 838.69C1113.59 838.69 1115.13 837.729 1116.24 835.807C1117.35 833.884 1117.91 831.105 1117.91 827.469C1117.91 825.054 1117.66 823.013 1117.14 821.347C1116.64 819.67 1115.92 818.402 1114.97 817.54C1114.03 816.669 1112.92 816.233 1111.62 816.233C1109.66 816.233 1108.12 817.199 1107 819.131C1105.89 821.062 1105.32 823.842 1105.31 827.469C1105.31 829.893 1105.56 831.943 1106.07 833.619C1106.58 835.286 1107.3 836.55 1108.24 837.412C1109.18 838.264 1110.3 838.69 1111.62 838.69Z" fill="white"/>
<path d="M160.573 1327V1323.82L170.417 1313.62C171.468 1312.51 172.335 1311.54 173.016 1310.71C173.708 1309.86 174.224 1309.06 174.565 1308.31C174.906 1307.55 175.076 1306.74 175.076 1305.89C175.076 1304.93 174.849 1304.09 174.394 1303.39C173.94 1302.68 173.32 1302.14 172.534 1301.76C171.748 1301.37 170.862 1301.18 169.877 1301.18C168.836 1301.18 167.927 1301.39 167.15 1301.82C166.373 1302.24 165.777 1302.84 165.36 1303.62C164.944 1304.4 164.735 1305.3 164.735 1306.35H160.545C160.545 1304.58 160.952 1303.03 161.766 1301.7C162.581 1300.38 163.698 1299.35 165.119 1298.62C166.539 1297.88 168.154 1297.51 169.963 1297.51C171.79 1297.51 173.4 1297.88 174.792 1298.61C176.194 1299.32 177.287 1300.31 178.073 1301.56C178.859 1302.8 179.252 1304.2 179.252 1305.76C179.252 1306.84 179.049 1307.9 178.641 1308.93C178.244 1309.96 177.548 1311.11 176.553 1312.38C175.559 1313.64 174.177 1315.17 172.406 1316.97L166.624 1323.02V1323.24H179.721V1327H160.573ZM195.234 1327.4C193.198 1327.4 191.399 1327.05 189.836 1326.35C188.283 1325.65 187.066 1324.68 186.186 1323.45C185.305 1322.22 184.87 1320.82 184.879 1319.24C184.87 1318.01 185.12 1316.88 185.632 1315.85C186.153 1314.81 186.858 1313.94 187.748 1313.25C188.638 1312.55 189.633 1312.1 190.731 1311.91V1311.74C189.282 1311.39 188.122 1310.62 187.251 1309.41C186.38 1308.21 185.949 1306.83 185.959 1305.27C185.949 1303.78 186.342 1302.45 187.137 1301.29C187.942 1300.12 189.046 1299.19 190.447 1298.52C191.849 1297.85 193.444 1297.51 195.234 1297.51C197.005 1297.51 198.586 1297.85 199.978 1298.53C201.38 1299.21 202.483 1300.13 203.288 1301.3C204.093 1302.47 204.5 1303.79 204.51 1305.27C204.5 1306.83 204.055 1308.21 203.174 1309.41C202.294 1310.62 201.148 1311.39 199.737 1311.74V1311.91C200.826 1312.1 201.806 1312.55 202.677 1313.25C203.558 1313.94 204.259 1314.81 204.78 1315.85C205.31 1316.88 205.58 1318.01 205.589 1319.24C205.58 1320.82 205.135 1322.22 204.254 1323.45C203.373 1324.68 202.152 1325.65 200.589 1326.35C199.036 1327.05 197.251 1327.4 195.234 1327.4ZM195.234 1323.8C196.437 1323.8 197.478 1323.61 198.359 1323.21C199.24 1322.8 199.922 1322.24 200.405 1321.52C200.887 1320.79 201.134 1319.94 201.143 1318.96C201.134 1317.95 200.869 1317.05 200.348 1316.28C199.836 1315.5 199.14 1314.89 198.26 1314.44C197.379 1314 196.37 1313.78 195.234 1313.78C194.088 1313.78 193.07 1314 192.18 1314.44C191.29 1314.89 190.589 1315.5 190.078 1316.28C189.566 1317.05 189.316 1317.95 189.325 1318.96C189.316 1319.94 189.548 1320.79 190.021 1321.52C190.504 1322.24 191.191 1322.8 192.081 1323.21C192.971 1323.61 194.022 1323.8 195.234 1323.8ZM195.234 1310.27C196.2 1310.27 197.057 1310.07 197.805 1309.68C198.553 1309.3 199.14 1308.76 199.566 1308.07C200.002 1307.37 200.225 1306.56 200.234 1305.64C200.225 1304.73 200.007 1303.93 199.581 1303.25C199.164 1302.57 198.582 1302.04 197.834 1301.67C197.085 1301.29 196.219 1301.11 195.234 1301.11C194.23 1301.11 193.35 1301.29 192.592 1301.67C191.844 1302.04 191.262 1302.57 190.845 1303.25C190.428 1303.93 190.225 1304.73 190.234 1305.64C190.225 1306.56 190.433 1307.37 190.859 1308.07C191.285 1308.76 191.872 1309.3 192.62 1309.68C193.378 1310.07 194.249 1310.27 195.234 1310.27ZM228.322 1322.17L211.987 1305.84L214.671 1303.15L231.006 1319.49L228.322 1322.17ZM214.671 1322.17L211.987 1319.49L228.322 1303.15L231.006 1305.84L214.671 1322.17ZM237.919 1327V1323.82L247.762 1313.62C248.813 1312.51 249.68 1311.54 250.362 1310.71C251.053 1309.86 251.569 1309.06 251.91 1308.31C252.251 1307.55 252.421 1306.74 252.421 1305.89C252.421 1304.93 252.194 1304.09 251.74 1303.39C251.285 1302.68 250.665 1302.14 249.879 1301.76C249.093 1301.37 248.207 1301.18 247.223 1301.18C246.181 1301.18 245.272 1301.39 244.495 1301.82C243.719 1302.24 243.122 1302.84 242.706 1303.62C242.289 1304.4 242.081 1305.3 242.081 1306.35H237.89C237.89 1304.58 238.297 1303.03 239.112 1301.7C239.926 1300.38 241.044 1299.35 242.464 1298.62C243.885 1297.88 245.499 1297.51 247.308 1297.51C249.135 1297.51 250.745 1297.88 252.137 1298.61C253.539 1299.32 254.633 1300.31 255.419 1301.56C256.205 1302.8 256.598 1304.2 256.598 1305.76C256.598 1306.84 256.394 1307.9 255.987 1308.93C255.589 1309.96 254.893 1311.11 253.899 1312.38C252.904 1313.64 251.522 1315.17 249.751 1316.97L243.97 1323.02V1323.24H257.066V1327H237.919ZM272.579 1327.4C270.543 1327.4 268.744 1327.05 267.182 1326.35C265.629 1325.65 264.412 1324.68 263.531 1323.45C262.65 1322.22 262.215 1320.82 262.224 1319.24C262.215 1318.01 262.466 1316.88 262.977 1315.85C263.498 1314.81 264.203 1313.94 265.094 1313.25C265.984 1312.55 266.978 1312.1 268.077 1311.91V1311.74C266.628 1311.39 265.468 1310.62 264.596 1309.41C263.725 1308.21 263.294 1306.83 263.304 1305.27C263.294 1303.78 263.687 1302.45 264.483 1301.29C265.288 1300.12 266.391 1299.19 267.792 1298.52C269.194 1297.85 270.79 1297.51 272.579 1297.51C274.35 1297.51 275.932 1297.85 277.324 1298.53C278.725 1299.21 279.828 1300.13 280.633 1301.3C281.438 1302.47 281.846 1303.79 281.855 1305.27C281.846 1306.83 281.4 1308.21 280.52 1309.41C279.639 1310.62 278.493 1311.39 277.082 1311.74V1311.91C278.171 1312.1 279.151 1312.55 280.023 1313.25C280.903 1313.94 281.604 1314.81 282.125 1315.85C282.655 1316.88 282.925 1318.01 282.935 1319.24C282.925 1320.82 282.48 1322.22 281.599 1323.45C280.719 1324.68 279.497 1325.65 277.935 1326.35C276.381 1327.05 274.596 1327.4 272.579 1327.4ZM272.579 1323.8C273.782 1323.8 274.824 1323.61 275.704 1323.21C276.585 1322.8 277.267 1322.24 277.75 1321.52C278.233 1320.79 278.479 1319.94 278.489 1318.96C278.479 1317.95 278.214 1317.05 277.693 1316.28C277.182 1315.5 276.486 1314.89 275.605 1314.44C274.724 1314 273.716 1313.78 272.579 1313.78C271.434 1313.78 270.416 1314 269.525 1314.44C268.635 1314.89 267.935 1315.5 267.423 1316.28C266.912 1317.05 266.661 1317.95 266.67 1318.96C266.661 1319.94 266.893 1320.79 267.366 1321.52C267.849 1322.24 268.536 1322.8 269.426 1323.21C270.316 1323.61 271.367 1323.8 272.579 1323.8ZM272.579 1310.27C273.545 1310.27 274.402 1310.07 275.15 1309.68C275.899 1309.3 276.486 1308.76 276.912 1308.07C277.347 1307.37 277.57 1306.56 277.579 1305.64C277.57 1304.73 277.352 1303.93 276.926 1303.25C276.509 1302.57 275.927 1302.04 275.179 1301.67C274.431 1301.29 273.564 1301.11 272.579 1301.11C271.576 1301.11 270.695 1301.29 269.937 1301.67C269.189 1302.04 268.607 1302.57 268.19 1303.25C267.774 1303.93 267.57 1304.73 267.579 1305.64C267.57 1306.56 267.778 1307.37 268.204 1308.07C268.631 1308.76 269.218 1309.3 269.966 1309.68C270.723 1310.07 271.595 1310.27 272.579 1310.27ZM132.153 1365V1343.18H136.4V1352.33H138.445L145.647 1343.18H150.903L142.451 1353.79L151.002 1365H145.732L139.156 1356.28H136.4V1365H132.153ZM160.951 1365.48C159.568 1365.48 158.318 1365.23 157.201 1364.72C156.083 1364.2 155.198 1363.44 154.544 1362.46C153.9 1361.47 153.578 1360.27 153.578 1358.84C153.578 1357.6 153.815 1356.59 154.289 1355.8C154.762 1355 155.401 1354.37 156.206 1353.91C157.011 1353.44 157.911 1353.09 158.905 1352.86C159.899 1352.62 160.913 1352.44 161.945 1352.32C163.252 1352.16 164.312 1352.04 165.127 1351.95C165.941 1351.84 166.533 1351.68 166.902 1351.45C167.272 1351.22 167.456 1350.85 167.456 1350.34V1350.24C167.456 1349 167.106 1348.04 166.405 1347.36C165.714 1346.68 164.682 1346.34 163.309 1346.34C161.879 1346.34 160.752 1346.65 159.928 1347.29C159.114 1347.91 158.55 1348.61 158.238 1349.38L154.246 1348.47C154.72 1347.14 155.411 1346.07 156.32 1345.26C157.239 1344.43 158.294 1343.84 159.488 1343.47C160.681 1343.09 161.935 1342.9 163.252 1342.9C164.123 1342.9 165.046 1343 166.022 1343.21C167.007 1343.41 167.925 1343.78 168.777 1344.32C169.639 1344.86 170.345 1345.63 170.894 1346.63C171.443 1347.63 171.718 1348.92 171.718 1350.51V1365H167.57V1362.02H167.399C167.125 1362.57 166.713 1363.11 166.164 1363.64C165.614 1364.17 164.909 1364.61 164.047 1364.96C163.185 1365.31 162.153 1365.48 160.951 1365.48ZM161.874 1362.07C163.048 1362.07 164.052 1361.84 164.885 1361.38C165.728 1360.91 166.367 1360.31 166.803 1359.56C167.248 1358.8 167.471 1357.99 167.471 1357.13V1354.32C167.319 1354.47 167.025 1354.61 166.59 1354.74C166.164 1354.87 165.676 1354.98 165.127 1355.07C164.578 1355.16 164.042 1355.24 163.522 1355.31C163.001 1355.38 162.565 1355.44 162.215 1355.48C161.391 1355.59 160.638 1355.76 159.956 1356.01C159.284 1356.25 158.744 1356.61 158.337 1357.07C157.939 1357.53 157.74 1358.13 157.74 1358.89C157.74 1359.94 158.129 1360.74 158.905 1361.28C159.682 1361.81 160.671 1362.07 161.874 1362.07ZM177.675 1373.18V1343.18H181.822V1346.72H182.177C182.424 1346.26 182.779 1345.74 183.243 1345.14C183.707 1344.55 184.351 1344.02 185.175 1343.58C185.999 1343.12 187.088 1342.9 188.442 1342.9C190.203 1342.9 191.775 1343.34 193.158 1344.23C194.54 1345.12 195.624 1346.41 196.41 1348.08C197.206 1349.76 197.604 1351.78 197.604 1354.13C197.604 1356.49 197.211 1358.51 196.425 1360.2C195.639 1361.87 194.559 1363.17 193.186 1364.08C191.813 1364.98 190.246 1365.43 188.484 1365.43C187.159 1365.43 186.074 1365.2 185.231 1364.76C184.398 1364.31 183.745 1363.79 183.271 1363.2C182.798 1362.6 182.433 1362.07 182.177 1361.61H181.922V1373.18H177.675ZM181.837 1354.09C181.837 1355.62 182.059 1356.97 182.504 1358.12C182.949 1359.28 183.593 1360.18 184.436 1360.84C185.279 1361.48 186.311 1361.8 187.533 1361.8C188.802 1361.8 189.862 1361.47 190.714 1360.8C191.567 1360.11 192.211 1359.19 192.646 1358.03C193.091 1356.86 193.314 1355.55 193.314 1354.09C193.314 1352.65 193.096 1351.36 192.66 1350.21C192.234 1349.07 191.59 1348.16 190.729 1347.5C189.876 1346.84 188.811 1346.51 187.533 1346.51C186.302 1346.51 185.26 1346.82 184.408 1347.46C183.565 1348.09 182.926 1348.98 182.49 1350.11C182.054 1351.25 181.837 1352.58 181.837 1354.09ZM200.034 1346.85V1343.18H218.443V1346.85H211.327V1365H207.179V1346.85H200.034ZM227.398 1359.05L237.014 1343.18H241.588V1365H237.426V1349.12L227.852 1365H223.236V1343.18H227.398V1359.05ZM262.385 1352.26V1355.94H250.567V1352.26H262.385ZM251.76 1343.18V1365H247.598V1343.18H251.76ZM265.354 1343.18V1365H261.206V1343.18H265.354ZM271.336 1365V1343.18H275.583V1352.33H277.628L284.83 1343.18H290.086L281.634 1353.79L290.185 1365H284.915L278.338 1356.28H275.583V1365H271.336ZM300.133 1365.48C298.751 1365.48 297.501 1365.23 296.383 1364.72C295.266 1364.2 294.381 1363.44 293.727 1362.46C293.083 1361.47 292.761 1360.27 292.761 1358.84C292.761 1357.6 292.998 1356.59 293.472 1355.8C293.945 1355 294.584 1354.37 295.389 1353.91C296.194 1353.44 297.094 1353.09 298.088 1352.86C299.082 1352.62 300.096 1352.44 301.128 1352.32C302.435 1352.16 303.495 1352.04 304.31 1351.95C305.124 1351.84 305.716 1351.68 306.085 1351.45C306.454 1351.22 306.639 1350.85 306.639 1350.34V1350.24C306.639 1349 306.289 1348.04 305.588 1347.36C304.897 1346.68 303.865 1346.34 302.491 1346.34C301.061 1346.34 299.935 1346.65 299.111 1347.29C298.296 1347.91 297.733 1348.61 297.42 1349.38L293.429 1348.47C293.902 1347.14 294.594 1346.07 295.503 1345.26C296.421 1344.43 297.477 1343.84 298.67 1343.47C299.864 1343.09 301.118 1342.9 302.435 1342.9C303.306 1342.9 304.229 1343 305.204 1343.21C306.189 1343.41 307.108 1343.78 307.96 1344.32C308.822 1344.86 309.527 1345.63 310.077 1346.63C310.626 1347.63 310.901 1348.92 310.901 1350.51V1365H306.753V1362.02H306.582C306.308 1362.57 305.896 1363.11 305.347 1363.64C304.797 1364.17 304.092 1364.61 303.23 1364.96C302.368 1365.31 301.336 1365.48 300.133 1365.48ZM301.057 1362.07C302.231 1362.07 303.235 1361.84 304.068 1361.38C304.911 1360.91 305.55 1360.31 305.986 1359.56C306.431 1358.8 306.653 1357.99 306.653 1357.13V1354.32C306.502 1354.47 306.208 1354.61 305.773 1354.74C305.347 1354.87 304.859 1354.98 304.31 1355.07C303.76 1355.16 303.225 1355.24 302.704 1355.31C302.184 1355.38 301.748 1355.44 301.398 1355.48C300.574 1355.59 299.821 1355.76 299.139 1356.01C298.467 1356.25 297.927 1356.61 297.52 1357.07C297.122 1357.53 296.923 1358.13 296.923 1358.89C296.923 1359.94 297.311 1360.74 298.088 1361.28C298.865 1361.81 299.854 1362.07 301.057 1362.07Z" fill="white"/>
<path d="M512.524 1315L525.223 1289.89V1289.67H510.535V1285.91H529.768V1289.8L517.112 1315H512.524ZM544.251 1315.4C542.215 1315.4 540.416 1315.05 538.854 1314.35C537.301 1313.65 536.084 1312.68 535.203 1311.45C534.322 1310.22 533.887 1308.82 533.896 1307.24C533.887 1306.01 534.138 1304.88 534.649 1303.85C535.17 1302.81 535.875 1301.94 536.765 1301.25C537.656 1300.55 538.65 1300.1 539.748 1299.91V1299.74C538.3 1299.39 537.14 1298.62 536.268 1297.41C535.397 1296.21 534.966 1294.83 534.976 1293.27C534.966 1291.78 535.359 1290.45 536.155 1289.29C536.96 1288.12 538.063 1287.19 539.464 1286.52C540.866 1285.85 542.462 1285.51 544.251 1285.51C546.022 1285.51 547.604 1285.85 548.996 1286.53C550.397 1287.21 551.5 1288.13 552.305 1289.3C553.11 1290.47 553.517 1291.79 553.527 1293.27C553.517 1294.83 553.072 1296.21 552.192 1297.41C551.311 1298.62 550.165 1299.39 548.754 1299.74V1299.91C549.843 1300.1 550.823 1300.55 551.694 1301.25C552.575 1301.94 553.276 1302.81 553.797 1303.85C554.327 1304.88 554.597 1306.01 554.606 1307.24C554.597 1308.82 554.152 1310.22 553.271 1311.45C552.39 1312.68 551.169 1313.65 549.606 1314.35C548.053 1315.05 546.268 1315.4 544.251 1315.4ZM544.251 1311.8C545.454 1311.8 546.496 1311.61 547.376 1311.21C548.257 1310.8 548.939 1310.24 549.422 1309.52C549.905 1308.79 550.151 1307.94 550.16 1306.96C550.151 1305.95 549.886 1305.05 549.365 1304.28C548.854 1303.5 548.158 1302.89 547.277 1302.44C546.396 1302 545.388 1301.78 544.251 1301.78C543.105 1301.78 542.087 1302 541.197 1302.44C540.307 1302.89 539.606 1303.5 539.095 1304.28C538.584 1305.05 538.333 1305.95 538.342 1306.96C538.333 1307.94 538.565 1308.79 539.038 1309.52C539.521 1310.24 540.208 1310.8 541.098 1311.21C541.988 1311.61 543.039 1311.8 544.251 1311.8ZM544.251 1298.27C545.217 1298.27 546.074 1298.07 546.822 1297.68C547.57 1297.3 548.158 1296.76 548.584 1296.07C549.019 1295.37 549.242 1294.56 549.251 1293.64C549.242 1292.73 549.024 1291.93 548.598 1291.25C548.181 1290.57 547.599 1290.04 546.851 1289.67C546.103 1289.29 545.236 1289.11 544.251 1289.11C543.247 1289.11 542.367 1289.29 541.609 1289.67C540.861 1290.04 540.279 1290.57 539.862 1291.25C539.445 1291.93 539.242 1292.73 539.251 1293.64C539.242 1294.56 539.45 1295.37 539.876 1296.07C540.302 1296.76 540.89 1297.3 541.638 1297.68C542.395 1298.07 543.266 1298.27 544.251 1298.27ZM559.384 1309.32V1305.77L571.955 1285.91H574.754V1291.14H572.978L563.987 1305.37V1305.6H581.217V1309.32H559.384ZM573.177 1315V1308.24L573.205 1306.62V1285.91H577.367V1315H573.177ZM473.112 1345.26V1348.94H461.293V1345.26H473.112ZM462.487 1336.18V1358H458.325V1336.18H462.487ZM476.08 1336.18V1358H471.933V1336.18H476.08ZM491.466 1358.44C489.316 1358.44 487.465 1357.98 485.912 1357.06C484.368 1356.13 483.175 1354.83 482.332 1353.16C481.499 1351.47 481.082 1349.5 481.082 1347.23C481.082 1345 481.499 1343.03 482.332 1341.32C483.175 1339.62 484.349 1338.29 485.855 1337.33C487.37 1336.38 489.141 1335.9 491.167 1335.9C492.398 1335.9 493.591 1336.1 494.747 1336.51C495.902 1336.92 496.939 1337.55 497.858 1338.43C498.776 1339.3 499.501 1340.43 500.031 1341.82C500.561 1343.2 500.826 1344.88 500.826 1346.86V1348.37H483.483V1345.19H496.664C496.664 1344.07 496.437 1343.08 495.983 1342.22C495.528 1341.35 494.889 1340.66 494.065 1340.16C493.251 1339.66 492.294 1339.41 491.196 1339.41C490.002 1339.41 488.961 1339.7 488.071 1340.29C487.19 1340.86 486.508 1341.62 486.025 1342.56C485.552 1343.49 485.315 1344.5 485.315 1345.59V1348.07C485.315 1349.53 485.571 1350.77 486.082 1351.79C486.603 1352.82 487.327 1353.6 488.255 1354.14C489.183 1354.67 490.268 1354.93 491.508 1354.93C492.313 1354.93 493.047 1354.82 493.71 1354.59C494.373 1354.35 494.946 1354 495.429 1353.54C495.912 1353.08 496.281 1352.5 496.537 1351.82L500.556 1352.55C500.234 1353.73 499.657 1354.77 498.824 1355.66C498 1356.54 496.963 1357.22 495.713 1357.72C494.472 1358.2 493.056 1358.44 491.466 1358.44ZM510.001 1352.05L519.617 1336.18H524.191V1358H520.029V1342.12L510.455 1358H505.839V1336.18H510.001V1352.05ZM517.799 1328.8H521.293C521.293 1330.4 520.725 1331.7 519.589 1332.7C518.462 1333.7 516.937 1334.19 515.015 1334.19C513.102 1334.19 511.582 1333.7 510.455 1332.7C509.328 1331.7 508.765 1330.4 508.765 1328.8H512.245C512.245 1329.51 512.453 1330.14 512.87 1330.68C513.287 1331.22 514.002 1331.49 515.015 1331.49C516.009 1331.49 516.719 1331.22 517.146 1330.68C517.581 1330.14 517.799 1329.52 517.799 1328.8ZM530.201 1366.18V1336.18H534.349V1339.72H534.704C534.95 1339.26 535.305 1338.74 535.769 1338.14C536.233 1337.55 536.877 1337.02 537.701 1336.58C538.525 1336.12 539.614 1335.9 540.968 1335.9C542.73 1335.9 544.302 1336.34 545.684 1337.23C547.067 1338.12 548.151 1339.41 548.937 1341.08C549.732 1342.76 550.13 1344.78 550.13 1347.13C550.13 1349.49 549.737 1351.51 548.951 1353.2C548.165 1354.87 547.086 1356.17 545.713 1357.08C544.339 1357.98 542.772 1358.43 541.011 1358.43C539.685 1358.43 538.601 1358.2 537.758 1357.76C536.925 1357.31 536.271 1356.79 535.798 1356.2C535.324 1355.6 534.96 1355.07 534.704 1354.61H534.448V1366.18H530.201ZM534.363 1347.09C534.363 1348.62 534.586 1349.97 535.031 1351.12C535.476 1352.28 536.12 1353.18 536.963 1353.84C537.805 1354.48 538.838 1354.8 540.059 1354.8C541.328 1354.8 542.389 1354.47 543.241 1353.8C544.093 1353.11 544.737 1352.19 545.173 1351.03C545.618 1349.86 545.84 1348.55 545.84 1347.09C545.84 1345.65 545.623 1344.36 545.187 1343.21C544.761 1342.07 544.117 1341.16 543.255 1340.5C542.403 1339.84 541.338 1339.51 540.059 1339.51C538.828 1339.51 537.786 1339.82 536.934 1340.46C536.091 1341.09 535.452 1341.98 535.017 1343.11C534.581 1344.25 534.363 1345.58 534.363 1347.09ZM564.379 1358.44C562.334 1358.44 560.549 1357.97 559.024 1357.03C557.499 1356.1 556.316 1354.79 555.473 1353.1C554.63 1351.41 554.209 1349.44 554.209 1347.19C554.209 1344.93 554.63 1342.95 555.473 1341.25C556.316 1339.56 557.499 1338.24 559.024 1337.3C560.549 1336.37 562.334 1335.9 564.379 1335.9C566.424 1335.9 568.21 1336.37 569.734 1337.3C571.259 1338.24 572.442 1339.56 573.285 1341.25C574.128 1342.95 574.549 1344.93 574.549 1347.19C574.549 1349.44 574.128 1351.41 573.285 1353.1C572.442 1354.79 571.259 1356.1 569.734 1357.03C568.21 1357.97 566.424 1358.44 564.379 1358.44ZM564.393 1354.88C565.719 1354.88 566.817 1354.52 567.689 1353.82C568.56 1353.12 569.204 1352.19 569.621 1351.03C570.047 1349.86 570.26 1348.58 570.26 1347.18C570.26 1345.78 570.047 1344.51 569.621 1343.34C569.204 1342.17 568.56 1341.22 567.689 1340.51C566.817 1339.8 565.719 1339.45 564.393 1339.45C563.058 1339.45 561.95 1339.8 561.069 1340.51C560.198 1341.22 559.549 1342.17 559.123 1343.34C558.707 1344.51 558.498 1345.78 558.498 1347.18C558.498 1348.58 558.707 1349.86 559.123 1351.03C559.549 1352.19 560.198 1353.12 561.069 1353.82C561.95 1354.52 563.058 1354.88 564.393 1354.88ZM594.377 1345.26V1348.94H582.559V1345.26H594.377ZM583.752 1336.18V1358H579.59V1336.18H583.752ZM597.346 1336.18V1358H593.198V1336.18H597.346ZM612.518 1358.44C610.473 1358.44 608.688 1357.97 607.163 1357.03C605.638 1356.1 604.455 1354.79 603.612 1353.1C602.769 1351.41 602.348 1349.44 602.348 1347.19C602.348 1344.93 602.769 1342.95 603.612 1341.25C604.455 1339.56 605.638 1338.24 607.163 1337.3C608.688 1336.37 610.473 1335.9 612.518 1335.9C614.564 1335.9 616.349 1336.37 617.873 1337.3C619.398 1338.24 620.582 1339.56 621.424 1341.25C622.267 1342.95 622.689 1344.93 622.689 1347.19C622.689 1349.44 622.267 1351.41 621.424 1353.1C620.582 1354.79 619.398 1356.1 617.873 1357.03C616.349 1357.97 614.564 1358.44 612.518 1358.44ZM612.532 1354.88C613.858 1354.88 614.957 1354.52 615.828 1353.82C616.699 1353.12 617.343 1352.19 617.76 1351.03C618.186 1349.86 618.399 1348.58 618.399 1347.18C618.399 1345.78 618.186 1344.51 617.76 1343.34C617.343 1342.17 616.699 1341.22 615.828 1340.51C614.957 1339.8 613.858 1339.45 612.532 1339.45C611.197 1339.45 610.089 1339.8 609.208 1340.51C608.337 1341.22 607.689 1342.17 607.262 1343.34C606.846 1344.51 606.637 1345.78 606.637 1347.18C606.637 1348.58 606.846 1349.86 607.262 1351.03C607.689 1352.19 608.337 1353.12 609.208 1353.82C610.089 1354.52 611.197 1354.88 612.532 1354.88ZM627.729 1358V1336.18H636.778C639.24 1336.18 641.191 1336.71 642.63 1337.76C644.069 1338.8 644.789 1340.22 644.789 1342.01C644.789 1343.28 644.382 1344.3 643.567 1345.05C642.753 1345.79 641.673 1346.3 640.329 1346.55C641.304 1346.66 642.199 1346.96 643.013 1347.43C643.828 1347.9 644.481 1348.52 644.974 1349.31C645.476 1350.09 645.726 1351.03 645.726 1352.12C645.726 1353.27 645.428 1354.3 644.832 1355.19C644.235 1356.07 643.369 1356.76 642.232 1357.26C641.105 1357.75 639.746 1358 638.155 1358H627.729ZM631.721 1354.45H638.155C639.207 1354.45 640.03 1354.2 640.627 1353.7C641.224 1353.19 641.522 1352.51 641.522 1351.65C641.522 1350.64 641.224 1349.84 640.627 1349.26C640.03 1348.68 639.207 1348.38 638.155 1348.38H631.721V1354.45ZM631.721 1345.27H636.82C637.616 1345.27 638.298 1345.16 638.866 1344.93C639.443 1344.7 639.884 1344.38 640.187 1343.97C640.499 1343.54 640.655 1343.04 640.655 1342.46C640.655 1341.62 640.31 1340.96 639.619 1340.49C638.927 1340.01 637.98 1339.78 636.778 1339.78H631.721V1345.27Z" fill="white"/>
<path d="M800.972 1315.4C799.021 1315.4 797.279 1315.06 795.745 1314.39C794.22 1313.72 793.013 1312.78 792.123 1311.59C791.242 1310.39 790.769 1309 790.702 1307.41H795.163C795.219 1308.28 795.508 1309.02 796.029 1309.66C796.559 1310.28 797.251 1310.77 798.103 1311.11C798.955 1311.45 799.902 1311.62 800.944 1311.62C802.09 1311.62 803.103 1311.42 803.984 1311.02C804.874 1310.62 805.57 1310.07 806.072 1309.36C806.574 1308.64 806.825 1307.81 806.825 1306.88C806.825 1305.9 806.574 1305.04 806.072 1304.3C805.579 1303.56 804.855 1302.97 803.898 1302.54C802.951 1302.12 801.806 1301.9 800.461 1301.9H798.003V1298.32H800.461C801.54 1298.32 802.487 1298.13 803.302 1297.74C804.126 1297.35 804.77 1296.81 805.234 1296.12C805.698 1295.42 805.93 1294.6 805.93 1293.66C805.93 1292.77 805.726 1291.98 805.319 1291.32C804.921 1290.65 804.353 1290.12 803.614 1289.74C802.885 1289.37 802.023 1289.18 801.029 1289.18C800.082 1289.18 799.197 1289.35 798.373 1289.7C797.558 1290.04 796.896 1290.54 796.384 1291.18C795.873 1291.81 795.598 1292.58 795.56 1293.47H791.313C791.36 1291.89 791.825 1290.51 792.705 1289.32C793.595 1288.12 794.77 1287.19 796.228 1286.52C797.686 1285.85 799.306 1285.51 801.086 1285.51C802.951 1285.51 804.561 1285.88 805.915 1286.61C807.279 1287.32 808.33 1288.29 809.069 1289.49C809.817 1290.69 810.186 1292.01 810.177 1293.44C810.186 1295.07 809.732 1296.45 808.813 1297.59C807.904 1298.72 806.692 1299.48 805.177 1299.87V1300.1C807.109 1300.39 808.605 1301.16 809.665 1302.4C810.735 1303.64 811.266 1305.18 811.256 1307.02C811.266 1308.62 810.821 1310.05 809.921 1311.32C809.031 1312.59 807.814 1313.59 806.271 1314.32C804.727 1315.04 802.961 1315.4 800.972 1315.4ZM827.053 1315.48C824.809 1315.47 822.892 1314.88 821.301 1313.71C819.71 1312.53 818.493 1310.82 817.65 1308.58C816.807 1306.34 816.386 1303.63 816.386 1300.47C816.386 1297.32 816.807 1294.62 817.65 1292.39C818.502 1290.15 819.724 1288.45 821.315 1287.27C822.915 1286.1 824.828 1285.51 827.053 1285.51C829.279 1285.51 831.187 1286.1 832.778 1287.29C834.369 1288.46 835.586 1290.17 836.428 1292.4C837.281 1294.63 837.707 1297.32 837.707 1300.47C837.707 1303.64 837.285 1306.35 836.443 1308.59C835.6 1310.83 834.383 1312.54 832.792 1313.72C831.201 1314.9 829.288 1315.48 827.053 1315.48ZM827.053 1311.69C829.023 1311.69 830.562 1310.73 831.67 1308.81C832.787 1306.88 833.346 1304.11 833.346 1300.47C833.346 1298.05 833.09 1296.01 832.579 1294.35C832.077 1292.67 831.353 1291.4 830.406 1290.54C829.468 1289.67 828.351 1289.23 827.053 1289.23C825.093 1289.23 823.554 1290.2 822.437 1292.13C821.32 1294.06 820.756 1296.84 820.747 1300.47C820.747 1302.89 820.998 1304.94 821.5 1306.62C822.011 1308.29 822.735 1309.55 823.673 1310.41C824.61 1311.26 825.737 1311.69 827.053 1311.69ZM853.174 1315.48C850.929 1315.47 849.012 1314.88 847.421 1313.71C845.83 1312.53 844.613 1310.82 843.77 1308.58C842.928 1306.34 842.506 1303.63 842.506 1300.47C842.506 1297.32 842.928 1294.62 843.77 1292.39C844.623 1290.15 845.844 1288.45 847.435 1287.27C849.036 1286.1 850.948 1285.51 853.174 1285.51C855.399 1285.51 857.307 1286.1 858.898 1287.29C860.489 1288.46 861.706 1290.17 862.549 1292.4C863.401 1294.63 863.827 1297.32 863.827 1300.47C863.827 1303.64 863.406 1306.35 862.563 1308.59C861.72 1310.83 860.503 1312.54 858.912 1313.72C857.322 1314.9 855.409 1315.48 853.174 1315.48ZM853.174 1311.69C855.143 1311.69 856.682 1310.73 857.79 1308.81C858.908 1306.88 859.466 1304.11 859.466 1300.47C859.466 1298.05 859.211 1296.01 858.699 1294.35C858.197 1292.67 857.473 1291.4 856.526 1290.54C855.589 1289.67 854.471 1289.23 853.174 1289.23C851.214 1289.23 849.675 1290.2 848.557 1292.13C847.44 1294.06 846.876 1296.84 846.867 1300.47C846.867 1302.89 847.118 1304.94 847.62 1306.62C848.131 1308.29 848.856 1309.55 849.793 1310.41C850.731 1311.26 851.857 1311.69 853.174 1311.69ZM754.112 1345.26V1348.94H742.293V1345.26H754.112ZM743.487 1336.18V1358H739.325V1336.18H743.487ZM757.08 1336.18V1358H752.933V1336.18H757.08ZM772.466 1358.44C770.316 1358.44 768.465 1357.98 766.912 1357.06C765.368 1356.13 764.175 1354.83 763.332 1353.16C762.499 1351.47 762.082 1349.5 762.082 1347.23C762.082 1345 762.499 1343.03 763.332 1341.32C764.175 1339.62 765.349 1338.29 766.855 1337.33C768.37 1336.38 770.141 1335.9 772.167 1335.9C773.398 1335.9 774.591 1336.1 775.747 1336.51C776.902 1336.92 777.939 1337.55 778.858 1338.43C779.776 1339.3 780.501 1340.43 781.031 1341.82C781.561 1343.2 781.826 1344.88 781.826 1346.86V1348.37H764.483V1345.19H777.664C777.664 1344.07 777.437 1343.08 776.983 1342.22C776.528 1341.35 775.889 1340.66 775.065 1340.16C774.251 1339.66 773.294 1339.41 772.196 1339.41C771.002 1339.41 769.961 1339.7 769.071 1340.29C768.19 1340.86 767.508 1341.62 767.025 1342.56C766.552 1343.49 766.315 1344.5 766.315 1345.59V1348.07C766.315 1349.53 766.571 1350.77 767.082 1351.79C767.603 1352.82 768.327 1353.6 769.255 1354.14C770.183 1354.67 771.268 1354.93 772.508 1354.93C773.313 1354.93 774.047 1354.82 774.71 1354.59C775.373 1354.35 775.946 1354 776.429 1353.54C776.912 1353.08 777.281 1352.5 777.537 1351.82L781.556 1352.55C781.234 1353.73 780.657 1354.77 779.824 1355.66C779 1356.54 777.963 1357.22 776.713 1357.72C775.472 1358.2 774.056 1358.44 772.466 1358.44ZM791.001 1352.05L800.617 1336.18H805.191V1358H801.029V1342.12L791.455 1358H786.839V1336.18H791.001V1352.05ZM798.799 1328.8H802.293C802.293 1330.4 801.725 1331.7 800.589 1332.7C799.462 1333.7 797.937 1334.19 796.015 1334.19C794.102 1334.19 792.582 1333.7 791.455 1332.7C790.328 1331.7 789.765 1330.4 789.765 1328.8H793.245C793.245 1329.51 793.453 1330.14 793.87 1330.68C794.287 1331.22 795.002 1331.49 796.015 1331.49C797.009 1331.49 797.719 1331.22 798.146 1330.68C798.581 1330.14 798.799 1329.52 798.799 1328.8ZM811.201 1366.18V1336.18H815.349V1339.72H815.704C815.95 1339.26 816.305 1338.74 816.769 1338.14C817.233 1337.55 817.877 1337.02 818.701 1336.58C819.525 1336.12 820.614 1335.9 821.968 1335.9C823.73 1335.9 825.302 1336.34 826.684 1337.23C828.067 1338.12 829.151 1339.41 829.937 1341.08C830.732 1342.76 831.13 1344.78 831.13 1347.13C831.13 1349.49 830.737 1351.51 829.951 1353.2C829.165 1354.87 828.086 1356.17 826.713 1357.08C825.339 1357.98 823.772 1358.43 822.011 1358.43C820.685 1358.43 819.601 1358.2 818.758 1357.76C817.925 1357.31 817.271 1356.79 816.798 1356.2C816.324 1355.6 815.96 1355.07 815.704 1354.61H815.448V1366.18H811.201ZM815.363 1347.09C815.363 1348.62 815.586 1349.97 816.031 1351.12C816.476 1352.28 817.12 1353.18 817.963 1353.84C818.805 1354.48 819.838 1354.8 821.059 1354.8C822.328 1354.8 823.389 1354.47 824.241 1353.8C825.093 1353.11 825.737 1352.19 826.173 1351.03C826.618 1349.86 826.84 1348.55 826.84 1347.09C826.84 1345.65 826.623 1344.36 826.187 1343.21C825.761 1342.07 825.117 1341.16 824.255 1340.5C823.403 1339.84 822.338 1339.51 821.059 1339.51C819.828 1339.51 818.786 1339.82 817.934 1340.46C817.091 1341.09 816.452 1341.98 816.017 1343.11C815.581 1344.25 815.363 1345.58 815.363 1347.09ZM845.379 1358.44C843.334 1358.44 841.549 1357.97 840.024 1357.03C838.499 1356.1 837.316 1354.79 836.473 1353.1C835.63 1351.41 835.209 1349.44 835.209 1347.19C835.209 1344.93 835.63 1342.95 836.473 1341.25C837.316 1339.56 838.499 1338.24 840.024 1337.3C841.549 1336.37 843.334 1335.9 845.379 1335.9C847.424 1335.9 849.21 1336.37 850.734 1337.3C852.259 1338.24 853.442 1339.56 854.285 1341.25C855.128 1342.95 855.549 1344.93 855.549 1347.19C855.549 1349.44 855.128 1351.41 854.285 1353.1C853.442 1354.79 852.259 1356.1 850.734 1357.03C849.21 1357.97 847.424 1358.44 845.379 1358.44ZM845.393 1354.88C846.719 1354.88 847.817 1354.52 848.689 1353.82C849.56 1353.12 850.204 1352.19 850.621 1351.03C851.047 1349.86 851.26 1348.58 851.26 1347.18C851.26 1345.78 851.047 1344.51 850.621 1343.34C850.204 1342.17 849.56 1341.22 848.689 1340.51C847.817 1339.8 846.719 1339.45 845.393 1339.45C844.058 1339.45 842.95 1339.8 842.069 1340.51C841.198 1341.22 840.549 1342.17 840.123 1343.34C839.707 1344.51 839.498 1345.78 839.498 1347.18C839.498 1348.58 839.707 1349.86 840.123 1351.03C840.549 1352.19 841.198 1353.12 842.069 1353.82C842.95 1354.52 844.058 1354.88 845.393 1354.88ZM875.377 1345.26V1348.94H863.559V1345.26H875.377ZM864.752 1336.18V1358H860.59V1336.18H864.752ZM878.346 1336.18V1358H874.198V1336.18H878.346ZM893.518 1358.44C891.473 1358.44 889.688 1357.97 888.163 1357.03C886.638 1356.1 885.455 1354.79 884.612 1353.1C883.769 1351.41 883.348 1349.44 883.348 1347.19C883.348 1344.93 883.769 1342.95 884.612 1341.25C885.455 1339.56 886.638 1338.24 888.163 1337.3C889.688 1336.37 891.473 1335.9 893.518 1335.9C895.564 1335.9 897.349 1336.37 898.873 1337.3C900.398 1338.24 901.582 1339.56 902.424 1341.25C903.267 1342.95 903.689 1344.93 903.689 1347.19C903.689 1349.44 903.267 1351.41 902.424 1353.1C901.582 1354.79 900.398 1356.1 898.873 1357.03C897.349 1357.97 895.564 1358.44 893.518 1358.44ZM893.532 1354.88C894.858 1354.88 895.957 1354.52 896.828 1353.82C897.699 1353.12 898.343 1352.19 898.76 1351.03C899.186 1349.86 899.399 1348.58 899.399 1347.18C899.399 1345.78 899.186 1344.51 898.76 1343.34C898.343 1342.17 897.699 1341.22 896.828 1340.51C895.957 1339.8 894.858 1339.45 893.532 1339.45C892.197 1339.45 891.089 1339.8 890.208 1340.51C889.337 1341.22 888.689 1342.17 888.262 1343.34C887.846 1344.51 887.637 1345.78 887.637 1347.18C887.637 1348.58 887.846 1349.86 888.262 1351.03C888.689 1352.19 889.337 1353.12 890.208 1353.82C891.089 1354.52 892.197 1354.88 893.532 1354.88ZM908.729 1358V1336.18H917.778C920.24 1336.18 922.191 1336.71 923.63 1337.76C925.069 1338.8 925.789 1340.22 925.789 1342.01C925.789 1343.28 925.382 1344.3 924.567 1345.05C923.753 1345.79 922.673 1346.3 921.329 1346.55C922.304 1346.66 923.199 1346.96 924.013 1347.43C924.828 1347.9 925.481 1348.52 925.974 1349.31C926.476 1350.09 926.726 1351.03 926.726 1352.12C926.726 1353.27 926.428 1354.3 925.832 1355.19C925.235 1356.07 924.369 1356.76 923.232 1357.26C922.105 1357.75 920.746 1358 919.155 1358H908.729ZM912.721 1354.45H919.155C920.207 1354.45 921.03 1354.2 921.627 1353.7C922.224 1353.19 922.522 1352.51 922.522 1351.65C922.522 1350.64 922.224 1349.84 921.627 1349.26C921.03 1348.68 920.207 1348.38 919.155 1348.38H912.721V1354.45ZM912.721 1345.27H917.82C918.616 1345.27 919.298 1345.16 919.866 1344.93C920.443 1344.7 920.884 1344.38 921.187 1343.97C921.499 1343.54 921.655 1343.04 921.655 1342.46C921.655 1341.62 921.31 1340.96 920.619 1340.49C919.927 1340.01 918.98 1339.78 917.778 1339.78H912.721V1345.27Z" fill="white"/>
<path d="M1119.82 1285.91V1315H1115.42V1290.31H1115.25L1108.29 1294.86V1290.65L1115.55 1285.91H1119.82ZM1138.12 1315.48C1135.87 1315.47 1133.96 1314.88 1132.37 1313.71C1130.78 1312.53 1129.56 1310.82 1128.72 1308.58C1127.87 1306.34 1127.45 1303.63 1127.45 1300.47C1127.45 1297.32 1127.87 1294.62 1128.72 1292.39C1129.57 1290.15 1130.79 1288.45 1132.38 1287.27C1133.98 1286.1 1135.89 1285.51 1138.12 1285.51C1140.34 1285.51 1142.25 1286.1 1143.84 1287.29C1145.43 1288.46 1146.65 1290.17 1147.49 1292.4C1148.35 1294.63 1148.77 1297.32 1148.77 1300.47C1148.77 1303.64 1148.35 1306.35 1147.51 1308.59C1146.67 1310.83 1145.45 1312.54 1143.86 1313.72C1142.27 1314.9 1140.35 1315.48 1138.12 1315.48ZM1138.12 1311.69C1140.09 1311.69 1141.63 1310.73 1142.74 1308.81C1143.85 1306.88 1144.41 1304.11 1144.41 1300.47C1144.41 1298.05 1144.16 1296.01 1143.64 1294.35C1143.14 1292.67 1142.42 1291.4 1141.47 1290.54C1140.53 1289.67 1139.42 1289.23 1138.12 1289.23C1136.16 1289.23 1134.62 1290.2 1133.5 1292.13C1132.39 1294.06 1131.82 1296.84 1131.81 1300.47C1131.81 1302.89 1132.06 1304.94 1132.57 1306.62C1133.08 1308.29 1133.8 1309.55 1134.74 1310.41C1135.68 1311.26 1136.8 1311.69 1138.12 1311.69ZM1050.11 1345.26V1348.94H1038.29V1345.26H1050.11ZM1039.49 1336.18V1358H1035.32V1336.18H1039.49ZM1053.08 1336.18V1358H1048.93V1336.18H1053.08ZM1068.47 1358.44C1066.32 1358.44 1064.46 1357.98 1062.91 1357.06C1061.37 1356.13 1060.17 1354.83 1059.33 1353.16C1058.5 1351.47 1058.08 1349.5 1058.08 1347.23C1058.08 1345 1058.5 1343.03 1059.33 1341.32C1060.17 1339.62 1061.35 1338.29 1062.85 1337.33C1064.37 1336.38 1066.14 1335.9 1068.17 1335.9C1069.4 1335.9 1070.59 1336.1 1071.75 1336.51C1072.9 1336.92 1073.94 1337.55 1074.86 1338.43C1075.78 1339.3 1076.5 1340.43 1077.03 1341.82C1077.56 1343.2 1077.83 1344.88 1077.83 1346.86V1348.37H1060.48V1345.19H1073.66C1073.66 1344.07 1073.44 1343.08 1072.98 1342.22C1072.53 1341.35 1071.89 1340.66 1071.06 1340.16C1070.25 1339.66 1069.29 1339.41 1068.2 1339.41C1067 1339.41 1065.96 1339.7 1065.07 1340.29C1064.19 1340.86 1063.51 1341.62 1063.03 1342.56C1062.55 1343.49 1062.31 1344.5 1062.31 1345.59V1348.07C1062.31 1349.53 1062.57 1350.77 1063.08 1351.79C1063.6 1352.82 1064.33 1353.6 1065.26 1354.14C1066.18 1354.67 1067.27 1354.93 1068.51 1354.93C1069.31 1354.93 1070.05 1354.82 1070.71 1354.59C1071.37 1354.35 1071.95 1354 1072.43 1353.54C1072.91 1353.08 1073.28 1352.5 1073.54 1351.82L1077.56 1352.55C1077.23 1353.73 1076.66 1354.77 1075.82 1355.66C1075 1356.54 1073.96 1357.22 1072.71 1357.72C1071.47 1358.2 1070.06 1358.44 1068.47 1358.44ZM1087 1352.05L1096.62 1336.18H1101.19V1358H1097.03V1342.12L1087.46 1358H1082.84V1336.18H1087V1352.05ZM1094.8 1328.8H1098.29C1098.29 1330.4 1097.73 1331.7 1096.59 1332.7C1095.46 1333.7 1093.94 1334.19 1092.01 1334.19C1090.1 1334.19 1088.58 1333.7 1087.46 1332.7C1086.33 1331.7 1085.76 1330.4 1085.76 1328.8H1089.24C1089.24 1329.51 1089.45 1330.14 1089.87 1330.68C1090.29 1331.22 1091 1331.49 1092.01 1331.49C1093.01 1331.49 1093.72 1331.22 1094.15 1330.68C1094.58 1330.14 1094.8 1329.52 1094.8 1328.8ZM1107.2 1366.18V1336.18H1111.35V1339.72H1111.7C1111.95 1339.26 1112.31 1338.74 1112.77 1338.14C1113.23 1337.55 1113.88 1337.02 1114.7 1336.58C1115.53 1336.12 1116.61 1335.9 1117.97 1335.9C1119.73 1335.9 1121.3 1336.34 1122.68 1337.23C1124.07 1338.12 1125.15 1339.41 1125.94 1341.08C1126.73 1342.76 1127.13 1344.78 1127.13 1347.13C1127.13 1349.49 1126.74 1351.51 1125.95 1353.2C1125.17 1354.87 1124.09 1356.17 1122.71 1357.08C1121.34 1357.98 1119.77 1358.43 1118.01 1358.43C1116.69 1358.43 1115.6 1358.2 1114.76 1357.76C1113.92 1357.31 1113.27 1356.79 1112.8 1356.2C1112.32 1355.6 1111.96 1355.07 1111.7 1354.61H1111.45V1366.18H1107.2ZM1111.36 1347.09C1111.36 1348.62 1111.59 1349.97 1112.03 1351.12C1112.48 1352.28 1113.12 1353.18 1113.96 1353.84C1114.81 1354.48 1115.84 1354.8 1117.06 1354.8C1118.33 1354.8 1119.39 1354.47 1120.24 1353.8C1121.09 1353.11 1121.74 1352.19 1122.17 1351.03C1122.62 1349.86 1122.84 1348.55 1122.84 1347.09C1122.84 1345.65 1122.62 1344.36 1122.19 1343.21C1121.76 1342.07 1121.12 1341.16 1120.26 1340.5C1119.4 1339.84 1118.34 1339.51 1117.06 1339.51C1115.83 1339.51 1114.79 1339.82 1113.93 1340.46C1113.09 1341.09 1112.45 1341.98 1112.02 1343.11C1111.58 1344.25 1111.36 1345.58 1111.36 1347.09ZM1141.38 1358.44C1139.33 1358.44 1137.55 1357.97 1136.02 1357.03C1134.5 1356.1 1133.32 1354.79 1132.47 1353.1C1131.63 1351.41 1131.21 1349.44 1131.21 1347.19C1131.21 1344.93 1131.63 1342.95 1132.47 1341.25C1133.32 1339.56 1134.5 1338.24 1136.02 1337.3C1137.55 1336.37 1139.33 1335.9 1141.38 1335.9C1143.42 1335.9 1145.21 1336.37 1146.73 1337.3C1148.26 1338.24 1149.44 1339.56 1150.29 1341.25C1151.13 1342.95 1151.55 1344.93 1151.55 1347.19C1151.55 1349.44 1151.13 1351.41 1150.29 1353.1C1149.44 1354.79 1148.26 1356.1 1146.73 1357.03C1145.21 1357.97 1143.42 1358.44 1141.38 1358.44ZM1141.39 1354.88C1142.72 1354.88 1143.82 1354.52 1144.69 1353.82C1145.56 1353.12 1146.2 1352.19 1146.62 1351.03C1147.05 1349.86 1147.26 1348.58 1147.26 1347.18C1147.26 1345.78 1147.05 1344.51 1146.62 1343.34C1146.2 1342.17 1145.56 1341.22 1144.69 1340.51C1143.82 1339.8 1142.72 1339.45 1141.39 1339.45C1140.06 1339.45 1138.95 1339.8 1138.07 1340.51C1137.2 1341.22 1136.55 1342.17 1136.12 1343.34C1135.71 1344.51 1135.5 1345.78 1135.5 1347.18C1135.5 1348.58 1135.71 1349.86 1136.12 1351.03C1136.55 1352.19 1137.2 1353.12 1138.07 1353.82C1138.95 1354.52 1140.06 1354.88 1141.39 1354.88ZM1171.38 1345.26V1348.94H1159.56V1345.26H1171.38ZM1160.75 1336.18V1358H1156.59V1336.18H1160.75ZM1174.35 1336.18V1358H1170.2V1336.18H1174.35ZM1189.52 1358.44C1187.47 1358.44 1185.69 1357.97 1184.16 1357.03C1182.64 1356.1 1181.45 1354.79 1180.61 1353.1C1179.77 1351.41 1179.35 1349.44 1179.35 1347.19C1179.35 1344.93 1179.77 1342.95 1180.61 1341.25C1181.45 1339.56 1182.64 1338.24 1184.16 1337.3C1185.69 1336.37 1187.47 1335.9 1189.52 1335.9C1191.56 1335.9 1193.35 1336.37 1194.87 1337.3C1196.4 1338.24 1197.58 1339.56 1198.42 1341.25C1199.27 1342.95 1199.69 1344.93 1199.69 1347.19C1199.69 1349.44 1199.27 1351.41 1198.42 1353.1C1197.58 1354.79 1196.4 1356.1 1194.87 1357.03C1193.35 1357.97 1191.56 1358.44 1189.52 1358.44ZM1189.53 1354.88C1190.86 1354.88 1191.96 1354.52 1192.83 1353.82C1193.7 1353.12 1194.34 1352.19 1194.76 1351.03C1195.19 1349.86 1195.4 1348.58 1195.4 1347.18C1195.4 1345.78 1195.19 1344.51 1194.76 1343.34C1194.34 1342.17 1193.7 1341.22 1192.83 1340.51C1191.96 1339.8 1190.86 1339.45 1189.53 1339.45C1188.2 1339.45 1187.09 1339.8 1186.21 1340.51C1185.34 1341.22 1184.69 1342.17 1184.26 1343.34C1183.85 1344.51 1183.64 1345.78 1183.64 1347.18C1183.64 1348.58 1183.85 1349.86 1184.26 1351.03C1184.69 1352.19 1185.34 1353.12 1186.21 1353.82C1187.09 1354.52 1188.2 1354.88 1189.53 1354.88ZM1204.73 1358V1336.18H1213.78C1216.24 1336.18 1218.19 1336.71 1219.63 1337.76C1221.07 1338.8 1221.79 1340.22 1221.79 1342.01C1221.79 1343.28 1221.38 1344.3 1220.57 1345.05C1219.75 1345.79 1218.67 1346.3 1217.33 1346.55C1218.3 1346.66 1219.2 1346.96 1220.01 1347.43C1220.83 1347.9 1221.48 1348.52 1221.97 1349.31C1222.48 1350.09 1222.73 1351.03 1222.73 1352.12C1222.73 1353.27 1222.43 1354.3 1221.83 1355.19C1221.24 1356.07 1220.37 1356.76 1219.23 1357.26C1218.11 1357.75 1216.75 1358 1215.16 1358H1204.73ZM1208.72 1354.45H1215.16C1216.21 1354.45 1217.03 1354.2 1217.63 1353.7C1218.22 1353.19 1218.52 1352.51 1218.52 1351.65C1218.52 1350.64 1218.22 1349.84 1217.63 1349.26C1217.03 1348.68 1216.21 1348.38 1215.16 1348.38H1208.72V1354.45ZM1208.72 1345.27H1213.82C1214.62 1345.27 1215.3 1345.16 1215.87 1344.93C1216.44 1344.7 1216.88 1344.38 1217.19 1343.97C1217.5 1343.54 1217.66 1343.04 1217.66 1342.46C1217.66 1341.62 1217.31 1340.96 1216.62 1340.49C1215.93 1340.01 1214.98 1339.78 1213.78 1339.78H1208.72V1345.27Z" fill="white"/>
<path opacity="0.5" d="M341.5 706L486.5 549.5" stroke="white" stroke-opacity="0.6" stroke-width="5" stroke-linecap="round"/>
<path opacity="0.5" d="M620 243L757 543" stroke="white" stroke-opacity="0.6" stroke-width="5" stroke-linecap="round"/>
<path opacity="0.5" d="M620 394L757 543" stroke="white" stroke-opacity="0.6" stroke-width="5" stroke-linecap="round"/>
<path opacity="0.5" d="M620 394L757 958" stroke="white" stroke-opacity="0.6" stroke-width="5" stroke-linecap="round"/>
<path opacity="0.5" d="M620 394L757 805" stroke="white" stroke-opacity="0.6" stroke-width="5" stroke-linecap="round"/>
<path opacity="0.5" d="M620 394L757 393" stroke="white" stroke-opacity="0.6" stroke-width="5" stroke-linecap="round"/>
<path opacity="0.5" d="M620 1111L757 543" stroke="white" stroke-opacity="0.6" stroke-width="5" stroke-linecap="round"/>
<path opacity="0.5" d="M620 1111L757 394" stroke="white" stroke-opacity="0.6" stroke-width="5" stroke-linecap="round"/>
<path opacity="0.5" d="M620 1111L757 805" stroke="white" stroke-opacity="0.6" stroke-width="5" stroke-linecap="round"/>
<path opacity="0.5" d="M620 1111L757 962" stroke="white" stroke-opacity="0.6" stroke-width="5" stroke-linecap="round"/>
<path opacity="0.5" d="M620 967L757 543" stroke="white" stroke-opacity="0.6" stroke-width="5" stroke-linecap="round"/>
<path opacity="0.5" d="M620 967L757 394" stroke="white" stroke-opacity="0.6" stroke-width="5" stroke-linecap="round"/>
<path opacity="0.5" d="M620 967L757 805" stroke="white" stroke-opacity="0.6" stroke-width="5" stroke-linecap="round"/>
<path opacity="0.5" d="M620 966L757 958" stroke="white" stroke-opacity="0.6" stroke-width="5" stroke-linecap="round"/>
<path opacity="0.5" d="M620 824L757 543" stroke="white" stroke-opacity="0.6" stroke-width="5" stroke-linecap="round"/>
<path opacity="0.5" d="M620 824L757 805" stroke="white" stroke-opacity="0.6" stroke-width="5" stroke-linecap="round"/>
<path opacity="0.5" d="M620 824L757 958" stroke="white" stroke-opacity="0.6" stroke-width="5" stroke-linecap="round"/>
<path opacity="0.5" d="M620 824L757 394" stroke="white" stroke-opacity="0.6" stroke-width="5" stroke-linecap="round"/>
<path opacity="0.5" d="M620 542L757 543" stroke="white" stroke-opacity="0.6" stroke-width="5" stroke-linecap="round"/>
<path opacity="0.5" d="M620 542L757 393" stroke="white" stroke-opacity="0.6" stroke-width="5" stroke-linecap="round"/>
<path opacity="0.5" d="M620 542L757 958" stroke="white" stroke-opacity="0.6" stroke-width="5" stroke-linecap="round"/>
<path opacity="0.5" d="M620 542L757 805" stroke="white" stroke-opacity="0.6" stroke-width="5" stroke-linecap="round"/>
<path opacity="0.5" d="M620 243L757 805" stroke="white" stroke-opacity="0.6" stroke-width="5" stroke-linecap="round"/>
<path opacity="0.5" d="M620 243L757 958" stroke="white" stroke-opacity="0.6" stroke-width="5" stroke-linecap="round"/>
<path opacity="0.5" d="M620 243L757 393" stroke="white" stroke-opacity="0.6" stroke-width="5" stroke-linecap="round"/>
<path opacity="0.5" d="M896 394L1033 544" stroke="white" stroke-opacity="0.6" stroke-width="5" stroke-linecap="round"/>
<path opacity="0.5" d="M896 543L1033 542" stroke="white" stroke-opacity="0.6" stroke-width="5" stroke-linecap="round"/>
<path opacity="0.5" d="M896 543L1033 827" stroke="white" stroke-opacity="0.6" stroke-width="5" stroke-linecap="round"/>
<path opacity="0.5" d="M896 820L1033 542" stroke="white" stroke-opacity="0.6" stroke-width="5" stroke-linecap="round"/>
<path opacity="0.5" d="M896 984L1033 542" stroke="white" stroke-opacity="0.6" stroke-width="5" stroke-linecap="round"/>
<path opacity="0.5" d="M896 984L1033 827" stroke="white" stroke-opacity="0.6" stroke-width="5" stroke-linecap="round"/>
<path opacity="0.5" d="M896 820L1033 827" stroke="white" stroke-opacity="0.6" stroke-width="5" stroke-linecap="round"/>
<path opacity="0.5" d="M896 394L1033 827" stroke="white" stroke-opacity="0.6" stroke-width="5" stroke-linecap="round"/>
<path opacity="0.5" d="M342 706L487 1111" stroke="white" stroke-opacity="0.6" stroke-width="5" stroke-linecap="round"/>
<path opacity="0.5" d="M342 706L487 967" stroke="white" stroke-opacity="0.6" stroke-width="5" stroke-linecap="round"/>
<path opacity="0.5" d="M342 706L487 824" stroke="white" stroke-opacity="0.6" stroke-width="5" stroke-linecap="round"/>
<path opacity="0.5" d="M342 706L487 394" stroke="white" stroke-opacity="0.6" stroke-width="5" stroke-linecap="round"/>
<path opacity="0.5" d="M342 706L487 243" stroke="white" stroke-opacity="0.6" stroke-width="5" stroke-linecap="round"/>
<defs>
<linearGradient id="paint0_linear_2099_1957" x1="757.5" y1="305.5" x2="900.5" y2="482.5" gradientUnits="userSpaceOnUse">
<stop offset="0.237204" stop-color="#FF6363"/>
<stop offset="0.760551" stop-color="#D72A2A"/>
</linearGradient>
<linearGradient id="paint1_linear_2099_1957" x1="757.5" y1="455.5" x2="900.5" y2="632.5" gradientUnits="userSpaceOnUse">
<stop offset="0.237204" stop-color="#FF6363"/>
<stop offset="0.760551" stop-color="#D72A2A"/>
</linearGradient>
<linearGradient id="paint2_linear_2099_1957" x1="757.5" y1="885.5" x2="900.5" y2="1062.5" gradientUnits="userSpaceOnUse">
<stop offset="0.237204" stop-color="#FF6363"/>
<stop offset="0.760551" stop-color="#D72A2A"/>
</linearGradient>
<linearGradient id="paint3_linear_2099_1957" x1="757.5" y1="735.5" x2="900.5" y2="912.5" gradientUnits="userSpaceOnUse">
<stop offset="0.237204" stop-color="#FF6363"/>
<stop offset="0.760551" stop-color="#D72A2A"/>
</linearGradient>
<linearGradient id="paint4_linear_2099_1957" x1="1030.5" y1="455.5" x2="1173.5" y2="632.5" gradientUnits="userSpaceOnUse">
<stop offset="0.237204" stop-color="#FF6363"/>
<stop offset="0.760551" stop-color="#D72A2A"/>
</linearGradient>
<linearGradient id="paint5_linear_2099_1957" x1="1030.5" y1="735.5" x2="1173.5" y2="912.5" gradientUnits="userSpaceOnUse">
<stop offset="0.237204" stop-color="#FF6363"/>
<stop offset="0.760551" stop-color="#D72A2A"/>
</linearGradient>
<linearGradient id="paint6_linear_2099_1957" x1="484.5" y1="734.5" x2="627.5" y2="911.5" gradientUnits="userSpaceOnUse">
<stop offset="0.237204" stop-color="#FF6363"/>
<stop offset="0.760551" stop-color="#D72A2A"/>
</linearGradient>
<linearGradient id="paint7_linear_2099_1957" x1="480.5" y1="1022.5" x2="623.5" y2="1199.5" gradientUnits="userSpaceOnUse">
<stop offset="0.237204" stop-color="#FF6363"/>
<stop offset="0.760551" stop-color="#D72A2A"/>
</linearGradient>
<linearGradient id="paint8_linear_2099_1957" x1="480.5" y1="878.5" x2="623.5" y2="1055.5" gradientUnits="userSpaceOnUse">
<stop offset="0.237204" stop-color="#FF6363"/>
<stop offset="0.760551" stop-color="#D72A2A"/>
</linearGradient>
<linearGradient id="paint9_linear_2099_1957" x1="480.5" y1="454.5" x2="623.5" y2="631.5" gradientUnits="userSpaceOnUse">
<stop offset="0.237204" stop-color="#FF6363"/>
<stop offset="0.760551" stop-color="#D72A2A"/>
</linearGradient>
<linearGradient id="paint10_linear_2099_1957" x1="480.5" y1="154.5" x2="623.5" y2="331.5" gradientUnits="userSpaceOnUse">
<stop offset="0.237204" stop-color="#FF6363"/>
<stop offset="0.760551" stop-color="#D72A2A"/>
</linearGradient>
<linearGradient id="paint11_linear_2099_1957" x1="480.5" y1="304.5" x2="623.5" y2="481.5" gradientUnits="userSpaceOnUse">
<stop offset="0.237204" stop-color="#FF6363"/>
<stop offset="0.760551" stop-color="#D72A2A"/>
</linearGradient>
<linearGradient id="paint12_linear_2099_1957" x1="114" y1="595" x2="336" y2="817" gradientUnits="userSpaceOnUse">
<stop stop-color="#FF6363"/>
<stop offset="1" stop-color="#D72A2A"/>
</linearGradient>
</defs>
</svg>
